<svg width="1069" height="1189" viewBox="0 0 1069 1189" fill="none" xmlns="http://www.w3.org/2000/svg">
<path d="M188.452 903.871C86.9165 903.871 18.3962 865.772 3.69362 800.188C-13.3256 724.271 49.0645 608.496 226.26 533.697C562.397 391.813 901.158 450.247 1006.66 593.845C1026.19 620.432 1040.53 648.316 1049.26 676.722L1021.7 685.196C1013.92 659.886 1001.04 634.894 983.422 610.915C935.833 546.14 829.559 499.262 699.143 485.518C552.294 470.04 388.317 496.583 237.471 560.257C120.335 609.699 12.0864 705.822 31.8252 793.875C44.0621 848.479 108.776 878.68 204.95 874.683C299.096 870.758 403.358 850.653 514.834 814.921L523.637 842.379C409.698 878.9 302.882 899.458 206.152 903.492C200.151 903.746 194.244 903.871 188.452 903.871Z" fill="#263238" stroke="#263238" stroke-miterlimit="10" stroke-linecap="round" stroke-linejoin="round"/>
<path d="M293.829 750.329C293.829 750.329 322.503 836.349 403.311 891.088C484.115 945.827 592.726 992.749 709.158 1010.99C825.589 1029.24 878.591 1022.29 904.657 985.796C930.722 949.302 969.824 870.235 923.772 700.802C877.72 531.369 862.08 542.664 862.08 542.664C862.08 542.664 855.997 500.958 820.374 466.201C784.75 431.445 721.32 408.854 721.32 408.854C721.32 408.854 694.384 441.003 637.908 441.003C581.431 441.003 515.393 417.542 473.687 419.279C431.981 421.017 377.242 476.626 335.535 609.566C293.829 742.508 293.829 750.329 293.829 750.329Z" fill="#EC6608"/>
<path opacity="0.58" d="M827.347 906.661C831.635 895.938 833.782 887.359 820.912 865.913C808.045 844.467 765.15 808.007 760.862 773.695C756.574 739.382 754.427 713.645 769.441 732.947C784.455 752.249 835.926 842.323 842.358 786.561C848.793 730.799 790.887 675.041 786.596 662.174C782.308 649.307 863.804 662.174 853.081 627.861C842.358 593.545 793.031 591.401 780.164 561.377C767.297 531.352 767.297 516.338 754.427 507.762C744.774 501.327 649.189 452.484 589.895 436.678C580.689 435.245 571.487 433.589 562.396 431.851C555.809 431.597 550.556 432.413 547.22 434.679C547.22 434.679 572.134 486.316 589.292 501.327C606.45 516.337 655.777 516.338 651.485 539.931C647.194 563.524 649.342 621.426 670.787 649.307C692.233 677.188 717.97 645.019 698.668 754.393C679.366 863.769 698.668 900.229 705.103 915.24C711.539 930.251 720.114 966.711 668.643 971.002C636.759 973.657 633.687 986.189 639.018 996.36C661.968 1002.3 685.385 1007.28 709.158 1011C800.069 1025.25 852.305 1024.13 883.248 1005.59C883.475 1000.87 882.201 995.801 878.818 990.304C861.663 962.423 823.059 917.384 827.347 906.661Z" fill="white"/>
<path opacity="0.58" d="M426.301 512.049C423.541 536.898 367.484 595.488 327.871 634.102C293.839 743.472 293.829 750.331 293.829 750.331C293.829 750.331 322.503 836.351 403.307 891.09C444.302 918.859 492.474 944.596 545.171 965.619C540.423 952.525 531.803 936.922 516.372 928.106C486.347 910.948 467.045 880.923 445.599 855.189C424.154 829.452 411.287 835.887 394.129 816.585C376.971 797.283 394.129 739.377 422.01 730.802C449.891 722.223 447.747 696.486 452.035 668.608C456.322 640.727 488.644 572.244 512.084 557.088C535.525 541.928 544.253 488.459 544.253 488.459C551.931 463.501 548.206 440.162 534.451 426.424C511.698 422.062 490.662 418.58 473.687 419.288C443.872 420.887 430.592 473.445 426.301 512.049Z" fill="white"/>
<path d="M293.829 750.329C293.829 750.329 322.503 836.349 403.311 891.088C484.115 945.827 592.726 992.749 709.158 1010.99C825.589 1029.24 878.591 1022.29 904.657 985.796C930.722 949.302 969.824 870.235 923.772 700.802C877.72 531.369 862.08 542.664 862.08 542.664C862.08 542.664 855.997 500.958 820.374 466.201C784.75 431.445 721.32 408.854 721.32 408.854C721.32 408.854 694.384 441.003 637.908 441.003C581.431 441.003 515.393 417.542 473.687 419.279C431.981 421.017 377.242 476.626 335.535 609.566C293.829 742.508 293.829 750.329 293.829 750.329Z" stroke="#263238" stroke-miterlimit="10" stroke-linecap="round" stroke-linejoin="round"/>
<path d="M648.431 492.434C648.431 492.434 676.106 524.386 705.135 554.292C720.836 570.468 747.661 640.634 737.351 689.605C727.041 738.577 719.309 806.877 739.928 844.251C760.548 881.622 756.683 924.152 778.59 951.213C800.496 978.274 827.561 980.852 830.138 1006.63" stroke="#263238" stroke-miterlimit="10" stroke-linecap="round" stroke-linejoin="round"/>
<path d="M714.161 564.128C714.161 564.128 740.375 576.812 752.212 591.189C764.05 605.563 782.654 620.784 808.869 626.704C835.083 632.625 857.068 653.762 862.988 673.213" stroke="#263238" stroke-miterlimit="10" stroke-linecap="round" stroke-linejoin="round"/>
<path d="M827.47 779.762C826.623 772.152 813.939 745.937 794.492 730.716C775.044 715.496 772.508 696.891 765.741 685.901C758.977 674.907 739.526 673.217 739.526 673.217" stroke="#263238" stroke-miterlimit="10" stroke-linecap="round" stroke-linejoin="round"/>
<path d="M726.845 774.685C726.845 774.685 729.382 786.522 761.516 805.973C793.648 825.42 798.722 850.792 806.332 865.166" stroke="#263238" stroke-miterlimit="10" stroke-linecap="round" stroke-linejoin="round"/>
<path d="M781.807 823.732C781.807 823.732 786.034 850.79 791.108 862.631" stroke="#263238" stroke-miterlimit="10" stroke-linecap="round" stroke-linejoin="round"/>
<path d="M739.931 844.249C739.931 844.249 732.765 848.256 731.071 898.145C729.381 948.034 747.139 981.859 753.059 993.699" stroke="#263238" stroke-miterlimit="10" stroke-linecap="round" stroke-linejoin="round"/>
<path d="M752.212 872.778C752.212 872.778 758.132 887.999 771.66 904.91C785.19 921.821 824.932 936.198 832.542 939.578" stroke="#263238" stroke-miterlimit="10" stroke-linecap="round" stroke-linejoin="round"/>
<path d="M692.173 541.298C692.173 541.298 687.099 553.982 684.562 583.58C682.026 613.175 694.71 625.015 694.71 625.015" stroke="#263238" stroke-miterlimit="10" stroke-linecap="round" stroke-linejoin="round"/>
<path d="M507.431 427.594C507.431 427.594 520.582 474.556 501.795 538.43C483.011 602.3 415.382 656.778 385.326 690.593C355.268 724.408 340.24 769.495 353.391 799.55C366.543 829.609 389.082 878.451 466.104 900.991" stroke="#263238" stroke-miterlimit="10" stroke-linecap="round" stroke-linejoin="round"/>
<path d="M488.647 572.245C488.647 572.245 498.039 583.517 488.647 632.359C479.255 681.202 499.919 715.016 499.919 715.016" stroke="#263238" stroke-miterlimit="10" stroke-linecap="round" stroke-linejoin="round"/>
<path d="M359.026 731.919C359.026 731.919 334.603 754.462 330.847 775.126C327.091 795.789 338.363 814.576 338.363 814.576" stroke="#263238" stroke-miterlimit="10" stroke-linecap="round" stroke-linejoin="round"/>
<path d="M407.87 872.81C407.87 872.81 430.413 902.868 458.592 917.896" stroke="#263238" stroke-miterlimit="10" stroke-linecap="round" stroke-linejoin="round"/>
<path d="M862.083 542.664C862.083 542.664 856 500.958 820.377 466.201C784.753 431.445 721.324 408.854 721.324 408.854C721.324 408.854 694.388 441.003 637.911 441.003C631.347 441.003 624.648 440.661 617.881 440.102C608.364 453.758 603.984 468.633 610.108 483.58C610.108 483.58 613.583 494.875 630.094 500.958C646.602 507.041 659.635 492.27 678.75 499.22C697.866 506.17 704.816 523.548 750 526.156C795.182 528.764 795.182 527.894 806.477 538.322C817.769 548.747 845.575 556.567 862.083 542.664Z" fill="#C4C4C4" stroke="#263238" stroke-miterlimit="10" stroke-linecap="round" stroke-linejoin="round"/>
<path d="M311.205 453.126C311.205 453.126 285.142 519.208 285.142 546.144C285.142 573.08 274.718 692.116 279.06 731.218C283.405 770.316 318.158 753.808 339.882 729.48C361.605 705.152 367.685 679.083 408.524 640.855C449.363 602.624 465.871 587.854 482.379 552.23C498.886 516.607 509.704 488.739 502.124 468.35C494.544 447.961 451.101 407.992 410.261 401.042C369.425 394.086 323.367 409.635 311.205 453.126Z" fill="#C4C4C4" stroke="#263238" stroke-miterlimit="10" stroke-linecap="round" stroke-linejoin="round"/>
<path d="M502.123 468.347C502.123 468.347 464.193 475.423 445.742 460.815C427.29 446.207 401.922 434.675 396.54 400.85C391.158 367.025 385.777 276.307 409.61 233.256C433.444 190.205 464.193 171.753 464.193 171.753L418.836 120.564C408.852 109.292 412.536 91.0975 426.514 85.499C426.738 85.4109 426.965 85.3228 427.195 85.2348C435.296 82.1967 444.458 84.388 450.537 90.5488L490.364 130.914C495.363 135.981 503.587 135.822 508.386 130.565C512.579 125.976 512.731 118.992 508.745 114.22L471.651 69.8176C462.439 58.7899 468.041 41.7368 482.08 38.6717C482.324 38.6175 482.571 38.5667 482.821 38.5193C490.899 36.9376 499.15 40.1755 504.528 46.404C516.538 60.3106 540.226 87.7377 550.607 99.7578C553.567 103.185 558.522 104.039 562.468 101.817C565.811 99.9373 567.697 96.2388 567.26 92.4285L559.338 23.5729C557.784 10.0456 569.926 -1.59178 583.185 1.50385C583.436 1.56143 583.69 1.62575 583.947 1.6901C591.341 3.6037 596.926 9.73062 598.413 17.2224L614.88 100.249C614.88 100.249 651.78 101.018 678.689 193.27C705.598 285.522 684.071 338.572 680.996 353.176C677.92 367.784 579.517 412.372 547.227 434.668C514.933 456.971 502.123 468.347 502.123 468.347Z" fill="#EC6608" stroke="#263238" stroke-miterlimit="10" stroke-linecap="round" stroke-linejoin="round"/>
<path d="M347.305 157.382C338.98 161.721 333.89 170.432 333.673 179.817C333.297 196.223 330.923 227.179 320.43 270.156C304.285 336.271 308.129 389.317 308.898 406.231C309.666 423.145 311.204 453.126 311.204 453.126C311.204 453.126 341.954 426.986 359.637 415.457C377.32 403.925 400.788 420.226 400.788 420.226C400.788 420.226 393.462 364.718 404.994 337.044C416.527 309.369 469.572 277.847 490.331 270.928C511.089 264.008 521.08 252.476 514.933 229.415C508.782 206.35 494.175 202.509 484.952 204.812C475.726 207.119 458.815 210.963 433.444 214.807C408.073 218.651 405.766 207.119 404.229 188.667C403.812 183.658 403.565 179.045 403.426 174.984C402.962 161.385 392.08 150.347 378.482 149.86C369.713 149.541 359.078 151.245 347.305 157.382Z" fill="#999999" stroke="#263238" stroke-miterlimit="10" stroke-linecap="round" stroke-linejoin="round"/>
<path d="M511.583 231.907C514.371 246.504 509.866 259.628 501.524 261.22C493.182 262.812 484.163 252.269 481.375 237.671C478.588 223.074 483.093 209.949 491.434 208.358C499.78 206.769 508.799 217.312 511.583 231.907Z" fill="#454545" stroke="#263238" stroke-miterlimit="10" stroke-linecap="round" stroke-linejoin="round"/>
<path d="M490.364 130.912L515.397 156.009" stroke="#263238" stroke-miterlimit="10" stroke-linecap="round" stroke-linejoin="round"/>
<path d="M550.604 99.7588L568.398 121.259" stroke="#263238" stroke-miterlimit="10" stroke-linecap="round" stroke-linejoin="round"/>
<path d="M502.124 468.348C502.124 468.348 510.771 355.947 577.469 296.66C644.167 237.372 764.683 217.714 779.555 217.474C784.476 217.393 792.388 232.43 792.388 255.902C792.388 279.37 811.395 309.151 800.28 314.092C789.164 319.034 730.631 326.309 712.102 338.657C693.575 351.009 707.16 351.009 718.276 379.419C729.392 407.828 730.628 415.239 713.334 436.237C696.041 457.236 637.99 488.114 594.759 481.937C551.529 475.762 545.354 451.058 530.53 457.233C515.712 463.407 502.124 468.348 502.124 468.348Z" fill="#999999" stroke="#263238" stroke-miterlimit="10" stroke-linecap="round" stroke-linejoin="round"/>
<path d="M805.618 262.411C811.342 289.089 808.95 312.225 800.28 314.084C791.609 315.944 779.942 295.826 774.218 269.144C768.494 242.465 770.885 219.329 779.555 217.47C788.226 215.61 799.897 235.732 805.618 262.411Z" fill="#454545" stroke="#263238" stroke-miterlimit="10" stroke-linecap="round" stroke-linejoin="round"/>
<path d="M665.087 400.219C662.882 405.861 661.003 411.859 659.594 418.2" stroke="#263238" stroke-miterlimit="10" stroke-linecap="round" stroke-linejoin="round"/>
<path d="M712.102 338.654C712.102 338.654 688.901 354.874 672.549 384.388" stroke="#263238" stroke-miterlimit="10" stroke-linecap="round" stroke-linejoin="round"/>
<path d="M602.678 243.905C606.153 239.342 609.519 235.336 612.632 232.227" stroke="#263238" stroke-miterlimit="10" stroke-linecap="round" stroke-linejoin="round"/>
<path d="M560.033 312.999C560.033 312.999 575.088 284.661 591.213 260.211" stroke="#263238" stroke-miterlimit="10" stroke-linecap="round" stroke-linejoin="round"/>
<path d="M687.19 1170.73C637.467 1170.73 604.393 1160.87 588.495 1141.21C577.234 1127.29 575.043 1108.79 582.328 1089.12C590.145 1068.02 619.909 1035.51 670.787 992.482C707.941 961.072 743.449 935.061 743.802 934.8L755.957 951.429C717.557 979.507 614.978 1060.26 601.64 1096.28C596.844 1109.22 597.809 1119.99 604.505 1128.26C615.022 1141.26 650.215 1160.52 767.791 1143.46L770.751 1163.84C739.06 1168.43 711.186 1170.73 687.19 1170.73Z" fill="white" stroke="#263238" stroke-miterlimit="10" stroke-linecap="round" stroke-linejoin="round"/>
<path d="M693.937 1119.76C680.9 1119.76 667.82 1119.28 654.842 1118.2C556.428 1109.99 507.583 1072.76 505.513 1004.37L526.099 1003.75C527.271 1042.51 543.159 1088.22 656.552 1097.68C769.61 1107.12 896.517 1068.03 897.791 1067.63L903.921 1087.29C899.173 1088.77 798.45 1119.76 693.937 1119.76Z" fill="white" stroke="#263238" stroke-miterlimit="10" stroke-linecap="round" stroke-linejoin="round"/>
<path d="M756.774 1188.02C742.938 1188.02 730.725 1178.03 728.371 1163.93C725.75 1148.22 736.357 1133.36 752.062 1130.74C752.299 1130.7 776.092 1126.69 800.719 1120.21C816.126 1116.15 831.885 1125.36 835.942 1140.76C839.996 1156.16 830.798 1171.93 815.397 1175.98C788.106 1183.16 762.623 1187.44 761.552 1187.62C759.944 1187.89 758.345 1188.02 756.774 1188.02Z" fill="#263238" stroke="#263238" stroke-miterlimit="10" stroke-linecap="round" stroke-linejoin="round"/>
<path d="M518.593 1049.52C507.633 1049.52 497.157 1043.24 492.327 1032.61C483.084 1012.27 482.817 987.43 482.817 984.663C482.817 968.738 495.724 955.83 511.65 955.83C527.544 955.83 540.435 968.694 540.482 984.575C540.519 989.435 541.627 1001.71 544.824 1008.75C551.412 1023.24 545 1040.34 530.504 1046.93C526.637 1048.69 522.582 1049.52 518.593 1049.52Z" fill="#263238"/>
<path d="M540.482 984.663H540.523M518.593 1049.52C507.633 1049.52 497.157 1043.24 492.327 1032.61C483.084 1012.27 482.817 987.43 482.817 984.663C482.817 968.738 495.724 955.83 511.65 955.83C527.544 955.83 540.435 968.694 540.482 984.575C540.519 989.435 541.627 1001.71 544.824 1008.75C551.412 1023.24 545 1040.34 530.504 1046.93C526.637 1048.69 522.582 1049.52 518.593 1049.52Z" stroke="#263238" stroke-miterlimit="10" stroke-linecap="round" stroke-linejoin="round"/>
<path d="M1034 870.972C1051.9 840.202 1085.29 765.815 1057.13 674.298C1053.45 662.342 1040.79 655.622 1028.82 659.307C1016.86 662.986 1010.15 675.663 1013.83 687.619C1036.23 760.44 1010.84 819.921 996.485 845.445C988.529 843.074 978.27 840.32 966.47 837.838C936.906 831.609 914.929 831.379 869.924 846.901C827.75 861.441 727.081 934.537 715.742 942.825C705.639 950.205 703.434 964.376 710.817 974.482C715.254 980.552 722.143 983.769 729.127 983.769C733.763 983.769 738.444 982.35 742.474 979.403C771.764 958.005 854.412 900.174 884.694 889.732C921.716 876.97 935.812 877.691 957.133 882.172C973.4 885.596 986.308 889.607 992.987 891.855C999.208 899.466 1013.09 918.778 1016.98 943.81C1025.94 1001.54 931.152 1037.48 880.233 1056.78C876.829 1058.07 873.595 1059.3 870.564 1060.47C858.886 1064.96 853.064 1078.07 857.555 1089.75C861.016 1098.75 869.598 1104.28 878.702 1104.28C881.405 1104.28 884.159 1103.78 886.831 1102.76C889.798 1101.62 892.965 1100.41 896.294 1099.15C959.216 1075.29 1076.34 1030.88 1061.75 936.861C1057.26 907.93 1043.95 884.848 1034 870.972Z" fill="white" stroke="#263238" stroke-miterlimit="10" stroke-linecap="round" stroke-linejoin="round"/>
<path d="M259.797 870.684L264.966 899.117C345.601 890.643 432.323 871.653 523.634 842.386L514.831 814.929C424.58 843.856 339.058 862.535 259.797 870.684Z" fill="#263238" stroke="#263238" stroke-miterlimit="10" stroke-linecap="round" stroke-linejoin="round"/>
<path d="M833.489 820.35C880.817 773.022 880.817 696.287 833.489 648.958C786.16 601.63 709.425 601.63 662.097 648.958C614.768 696.287 614.768 773.022 662.097 820.35C709.425 867.679 786.16 867.679 833.489 820.35Z" fill="#263238" stroke="#263238" stroke-miterlimit="10" stroke-linecap="round" stroke-linejoin="round"/>
<path d="M844.57 820.347C891.899 773.019 891.899 696.284 844.57 648.956C797.242 601.627 720.507 601.627 673.178 648.956C625.85 696.284 625.85 773.019 673.178 820.347C720.507 867.676 797.242 867.676 844.57 820.347Z" fill="white" stroke="#263238" stroke-miterlimit="10" stroke-linecap="round" stroke-linejoin="round"/>
<path d="M525.519 848.269L512.95 809.042C636.244 769.534 724.333 724.421 725.211 723.967L744.089 760.576C740.398 762.479 652.284 807.647 525.519 848.269Z" fill="white" stroke="#263238" stroke-miterlimit="10" stroke-linecap="round" stroke-linejoin="round"/>
<path d="M747.805 783.723C774.905 783.723 796.874 761.754 796.874 734.653C796.874 707.553 774.905 685.584 747.805 685.584C720.705 685.584 698.735 707.553 698.735 734.653C698.735 761.754 720.705 783.723 747.805 783.723Z" fill="#263238" stroke="#263238" stroke-miterlimit="10" stroke-linecap="round" stroke-linejoin="round"/>
<path d="M756.116 783.723C783.216 783.723 805.185 761.754 805.185 734.653C805.185 707.553 783.216 685.584 756.116 685.584C729.016 685.584 707.046 707.553 707.046 734.653C707.046 761.754 729.016 783.723 756.116 783.723Z" fill="white" stroke="#263238" stroke-miterlimit="10" stroke-linecap="round" stroke-linejoin="round"/>
</svg>
